<svg width="86" height="85" xmlns="http://www.w3.org/2000/svg" xmlns:xlink="http://www.w3.org/1999/xlink" overflow="hidden"><defs><clipPath id="clip0"><rect x="133" y="127" width="86" height="85"/></clipPath></defs><g clip-path="url(#clip0)" transform="translate(-133 -127)"><path d="M175.958 211 175.958 194.735C193.24 194.735 206.527 177.671 199.934 159.509 197.536 152.824 192.141 147.435 185.448 145.04 167.266 138.454 150.184 151.826 150.184 168.989L134 168.989C134 141.548 160.573 120.093 189.344 129.074 202.031 133.066 212.021 143.044 215.917 155.618 224.908 184.456 203.53 211 175.958 211Z" fill="#D7DAE0" fill-rule="evenodd"/><path d="M176 195 160 195 160 179 160.098 179 176 179 176 195Z" fill="#D7DAE0" fill-rule="evenodd"/><path d="M160 208 147 208 147 195 160 195 160 208Z" fill="#D7DAE0" fill-rule="evenodd"/><path d="M147 195 137 195 137 185 146.905 185 146.905 195 147 195Z" fill="#D7DAE0" fill-rule="evenodd"/></g></svg>